# Blender v2.91.0 OBJ File: 'anim_enemy_melee.blend'
# www.blender.org
mtllib enemy_slash.mtl
o NurbsCurve
v -0.100181 0.311208 0.862750
v 0.096025 0.770590 0.884484
v -0.141085 0.329565 0.859771
v 0.068432 0.782982 0.882485
v -0.182061 0.349342 0.856810
v 0.039429 0.796986 0.880398
v -0.223099 0.370466 0.853721
v 0.009315 0.812492 0.878140
v -0.264158 0.392867 0.850370
v -0.021637 0.829383 0.875620
v -0.305166 0.416475 0.846625
v -0.053174 0.847541 0.872746
v -0.346033 0.441219 0.842359
v -0.085058 0.866847 0.869425
v -0.386656 0.467028 0.837448
v -0.117063 0.887182 0.865561
v -0.426918 0.493830 0.831765
v -0.148970 0.908423 0.861064
v -0.466692 0.521554 0.825185
v -0.180569 0.930448 0.855843
v -0.505846 0.550125 0.817582
v -0.211656 0.953131 0.849814
v -0.544239 0.579472 0.808828
v -0.242033 0.976348 0.842895
v -0.581726 0.609519 0.798793
v -0.271507 0.999970 0.835013
v -0.618155 0.640192 0.787343
v -0.299893 1.023868 0.826102
v -0.653368 0.671416 0.774344
v -0.327016 1.047914 0.816100
v -0.687201 0.703112 0.759657
v -0.352711 1.071981 0.804959
v -0.719483 0.735201 0.743142
v -0.376827 1.095947 0.792637
v -0.750032 0.767595 0.724657
v -0.399233 1.119697 0.779097
v -0.778660 0.800202 0.704061
v -0.419818 1.143135 0.764305
v -0.805148 0.832896 0.681236
v -0.438574 1.166280 0.748154
v -0.829329 0.865517 0.656209
v -0.455666 1.189343 0.730455
v -0.851187 0.897955 0.629154
v -0.471253 1.212482 0.711150
v -0.870757 0.930147 0.600235
v -0.485361 1.235697 0.690288
v -0.888081 0.962037 0.569610
v -0.497996 1.258963 0.667938
v -0.903207 0.993574 0.537432
v -0.509156 1.282241 0.644181
v -0.916182 1.024715 0.503848
v -0.518837 1.305486 0.619106
v -0.927056 1.055416 0.469002
v -0.527035 1.328643 0.592816
v -0.935876 1.085639 0.433030
v -0.533746 1.351653 0.565424
v -0.942688 1.115346 0.396066
v -0.538972 1.374454 0.537049
v -0.947538 1.144502 0.358241
v -0.542715 1.396981 0.507820
v -0.950466 1.173072 0.319681
v -0.544987 1.419167 0.477872
v -0.951514 1.201020 0.280510
v -0.545802 1.440946 0.447343
v -0.950718 1.228312 0.240850
v -0.545178 1.462252 0.416378
v -0.948111 1.254914 0.200819
v -0.543142 1.483019 0.385124
v -0.943726 1.280791 0.160536
v -0.539724 1.503182 0.353732
v -0.937588 1.305907 0.120114
v -0.534961 1.522677 0.322356
v -0.929724 1.330227 0.079670
v -0.528893 1.541440 0.291151
v -0.920151 1.353717 0.039313
v -0.521571 1.559409 0.260276
v -0.908887 1.376335 -0.000840
v -0.513047 1.576529 0.229883
v -0.895970 1.398009 -0.040610
v -0.503348 1.592800 0.200023
v -0.881495 1.418684 -0.079827
v -0.492492 1.608300 0.170619
v -0.865564 1.438370 -0.118410
v -0.480521 1.623088 0.141631
v -0.848269 1.457095 -0.156320
v -0.467495 1.637188 0.113081
v -0.829703 1.474893 -0.193523
v -0.453475 1.650623 0.084994
v -0.809955 1.491798 -0.229983
v -0.438525 1.663416 0.057397
v -0.789112 1.507842 -0.265671
v -0.422711 1.675586 0.030323
v -0.767263 1.523062 -0.300556
v -0.406102 1.687152 0.003806
v -0.744493 1.537492 -0.334611
v -0.388767 1.698134 -0.022116
v -0.720884 1.551168 -0.367809
v -0.370781 1.708550 -0.047405
v -0.696519 1.564126 -0.400124
v -0.352219 1.718419 -0.072021
v -0.671475 1.576402 -0.431532
v -0.333161 1.727759 -0.095920
v -0.645829 1.588033 -0.462010
v -0.313689 1.736587 -0.119061
v -0.619657 1.599054 -0.491537
v -0.293887 1.744923 -0.141399
v -0.593028 1.609503 -0.520089
v -0.273844 1.752785 -0.162889
v -0.566011 1.619416 -0.547648
v -0.253653 1.760191 -0.183485
v -0.538670 1.628830 -0.574193
v -0.233409 1.767159 -0.203140
v -0.511065 1.637784 -0.599707
v -0.213212 1.773708 -0.221807
v -0.483251 1.646317 -0.624170
v -0.193167 1.779855 -0.239438
vt 0.017089 -0.003774
vt 0.024095 -0.003774
vt 0.024095 0.996227
vt 0.017089 0.996227
vt 0.032001 -0.003774
vt 0.032001 0.996227
vt 0.040844 -0.003774
vt 0.040844 0.996227
vt 0.050644 -0.003774
vt 0.050644 0.996227
vt 0.061411 -0.003774
vt 0.061411 0.996227
vt 0.073137 -0.003774
vt 0.073137 0.996227
vt 0.085800 -0.003774
vt 0.085800 0.996227
vt 0.099357 -0.003774
vt 0.099357 0.996227
vt 0.113757 -0.003774
vt 0.113757 0.996227
vt 0.128929 -0.003774
vt 0.128929 0.996227
vt 0.144793 -0.003774
vt 0.144793 0.996227
vt 0.161260 -0.003774
vt 0.161260 0.996227
vt 0.178231 -0.003774
vt 0.178231 0.996227
vt 0.195610 -0.003774
vt 0.195610 0.996227
vt 0.213297 -0.003774
vt 0.213297 0.996227
vt 0.231200 -0.003774
vt 0.231200 0.996227
vt 0.249236 -0.003774
vt 0.249236 0.996227
vt 0.267339 -0.003774
vt 0.267339 0.996227
vt 0.285481 -0.003774
vt 0.285481 0.996227
vt 0.303699 -0.003774
vt 0.303699 0.996227
vt 0.322015 -0.003774
vt 0.322015 0.996227
vt 0.340406 -0.003774
vt 0.340406 0.996227
vt 0.358867 -0.003774
vt 0.358867 0.996227
vt 0.377349 -0.003774
vt 0.377349 0.996227
vt 0.395792 -0.003774
vt 0.395792 0.996227
vt 0.414129 -0.003774
vt 0.414129 0.996227
vt 0.432286 -0.003774
vt 0.432286 0.996227
vt 0.450187 -0.003774
vt 0.450187 0.996227
vt 0.467752 -0.003774
vt 0.467752 0.996227
vt 0.484904 -0.003774
vt 0.484904 0.996227
vt 0.501566 -0.003774
vt 0.501566 0.996227
vt 0.517663 -0.003774
vt 0.517663 0.996227
vt 0.533128 -0.003774
vt 0.533128 0.996227
vt 0.547900 -0.003774
vt 0.547900 0.996227
vt 0.561927 -0.003774
vt 0.561927 0.996227
vt 0.575163 -0.003774
vt 0.575163 0.996227
vt 0.587573 -0.003774
vt 0.587573 0.996227
vt 0.599135 -0.003774
vt 0.599135 0.996227
vt 0.609840 -0.003774
vt 0.609840 0.996227
vt 0.619707 -0.003774
vt 0.619707 0.996227
vt 0.628758 -0.003774
vt 0.628758 0.996227
vt 0.637017 -0.003774
vt 0.637017 0.996227
vt 0.644506 -0.003774
vt 0.644506 0.996227
vt 0.651249 -0.003774
vt 0.651249 0.996227
vt 0.657269 -0.003774
vt 0.657269 0.996227
vt 0.662595 -0.003774
vt 0.662595 0.996227
vt 0.667254 -0.003774
vt 0.667254 0.996227
vt 0.671278 -0.003774
vt 0.671278 0.996227
vt 0.674700 -0.003774
vt 0.674700 0.996227
vt 0.677555 -0.003774
vt 0.677555 0.996227
vt 0.679882 -0.003774
vt 0.679882 0.996227
vt 0.681720 -0.003774
vt 0.681720 0.996227
vt 0.683111 -0.003774
vt 0.683111 0.996227
vt 0.684099 -0.003774
vt 0.684099 0.996227
vt 0.684728 -0.003774
vt 0.684728 0.996227
vt 0.685041 -0.003774
vt 0.685041 0.996227
vt 0.685084 -0.003774
vt 0.685084 0.996227
vn -0.0785 -0.0136 0.9968
vn -0.0799 -0.0130 0.9967
vn -0.0838 -0.0109 0.9964
vn -0.0902 -0.0075 0.9959
vn -0.0987 -0.0026 0.9951
vn -0.1094 0.0039 0.9940
vn -0.1221 0.0119 0.9924
vn -0.1368 0.0217 0.9904
vn -0.1535 0.0334 0.9876
vn -0.1722 0.0471 0.9839
vn -0.1931 0.0630 0.9792
vn -0.2159 0.0813 0.9730
vn -0.2409 0.1023 0.9651
vn -0.2678 0.1262 0.9551
vn -0.2967 0.1533 0.9425
vn -0.3274 0.1838 0.9268
vn -0.3596 0.2180 0.9073
vn -0.3927 0.2558 0.8834
vn -0.4256 0.2963 0.8550
vn -0.4558 0.3371 0.8238
vn -0.4822 0.3762 0.7911
vn -0.5049 0.4135 0.7577
vn -0.5240 0.4487 0.7239
vn -0.5400 0.4819 0.6900
vn -0.5530 0.5131 0.6564
vn -0.5634 0.5424 0.6232
vn -0.5714 0.5698 0.5906
vn -0.5773 0.5955 0.5587
vn -0.5813 0.6196 0.5274
vn -0.5836 0.6423 0.4968
vn -0.5844 0.6637 0.4669
vn -0.5838 0.6839 0.4375
vn -0.5820 0.7030 0.4087
vn -0.5789 0.7213 0.3802
vn -0.5746 0.7388 0.3521
vn -0.5692 0.7556 0.3242
vn -0.5626 0.7718 0.2963
vn -0.5548 0.7875 0.2685
vn -0.5458 0.8025 0.2409
vn -0.5359 0.8167 0.2141
vn -0.5253 0.8298 0.1884
vn -0.5141 0.8419 0.1638
vn -0.5024 0.8531 0.1404
vn -0.4904 0.8634 0.1182
vn -0.4782 0.8728 0.0973
vn -0.4658 0.8815 0.0775
vn -0.4534 0.8894 0.0589
vn -0.4410 0.8965 0.0414
vn -0.4287 0.9031 0.0251
vn -0.4165 0.9091 0.0099
vn -0.4046 0.9145 -0.0043
vn -0.3929 0.9194 -0.0175
vn -0.3815 0.9239 -0.0296
vn -0.3705 0.9279 -0.0409
vn -0.3598 0.9316 -0.0512
vn -0.3496 0.9349 -0.0607
vn -0.3446 0.9365 -0.0652
usemtl Material.001
s 1
f 2/1/1 4/2/1 3/3/1 1/4/1
f 4/2/1 6/5/2 5/6/2 3/3/1
f 6/5/2 8/7/3 7/8/3 5/6/2
f 8/7/3 10/9/4 9/10/4 7/8/3
f 10/9/4 12/11/5 11/12/5 9/10/4
f 12/11/5 14/13/6 13/14/6 11/12/5
f 14/13/6 16/15/7 15/16/7 13/14/6
f 16/15/7 18/17/8 17/18/8 15/16/7
f 18/17/8 20/19/9 19/20/9 17/18/8
f 20/19/9 22/21/10 21/22/10 19/20/9
f 22/21/10 24/23/11 23/24/11 21/22/10
f 24/23/11 26/25/12 25/26/12 23/24/11
f 26/25/12 28/27/13 27/28/13 25/26/12
f 28/27/13 30/29/14 29/30/14 27/28/13
f 30/29/14 32/31/15 31/32/15 29/30/14
f 32/31/15 34/33/16 33/34/16 31/32/15
f 34/33/16 36/35/17 35/36/17 33/34/16
f 36/35/17 38/37/18 37/38/18 35/36/17
f 38/37/18 40/39/19 39/40/19 37/38/18
f 40/39/19 42/41/20 41/42/20 39/40/19
f 42/41/20 44/43/21 43/44/21 41/42/20
f 44/43/21 46/45/22 45/46/22 43/44/21
f 46/45/22 48/47/23 47/48/23 45/46/22
f 48/47/23 50/49/24 49/50/24 47/48/23
f 50/49/24 52/51/25 51/52/25 49/50/24
f 52/51/25 54/53/26 53/54/26 51/52/25
f 54/53/26 56/55/27 55/56/27 53/54/26
f 56/55/27 58/57/28 57/58/28 55/56/27
f 58/57/28 60/59/29 59/60/29 57/58/28
f 60/59/29 62/61/30 61/62/30 59/60/29
f 62/61/30 64/63/31 63/64/31 61/62/30
f 64/63/31 66/65/32 65/66/32 63/64/31
f 66/65/32 68/67/33 67/68/33 65/66/32
f 68/67/33 70/69/34 69/70/34 67/68/33
f 70/69/34 72/71/35 71/72/35 69/70/34
f 72/71/35 74/73/36 73/74/36 71/72/35
f 74/73/36 76/75/37 75/76/37 73/74/36
f 76/75/37 78/77/38 77/78/38 75/76/37
f 78/77/38 80/79/39 79/80/39 77/78/38
f 80/79/39 82/81/40 81/82/40 79/80/39
f 82/81/40 84/83/41 83/84/41 81/82/40
f 84/83/41 86/85/42 85/86/42 83/84/41
f 86/85/42 88/87/43 87/88/43 85/86/42
f 88/87/43 90/89/44 89/90/44 87/88/43
f 90/89/44 92/91/45 91/92/45 89/90/44
f 92/91/45 94/93/46 93/94/46 91/92/45
f 94/93/46 96/95/47 95/96/47 93/94/46
f 96/95/47 98/97/48 97/98/48 95/96/47
f 98/97/48 100/99/49 99/100/49 97/98/48
f 100/99/49 102/101/50 101/102/50 99/100/49
f 102/101/50 104/103/51 103/104/51 101/102/50
f 104/103/51 106/105/52 105/106/52 103/104/51
f 106/105/52 108/107/53 107/108/53 105/106/52
f 108/107/53 110/109/54 109/110/54 107/108/53
f 110/109/54 112/111/55 111/112/55 109/110/54
f 112/111/55 114/113/56 113/114/56 111/112/55
f 114/113/56 116/115/57 115/116/57 113/114/56
